<svg width="44" height="44" viewBox="0 0 44 44" fill="none" xmlns="http://www.w3.org/2000/svg">
<path d="M1.75 41.7498H40.75M3.75 23.7497V41.7498M39.75 23.7497V41.7498M12.75 13.7497V41.7498M30.75 13.7497V41.7498M1.75 23.7497H11.75M41.75 23.7497H31.75M10.75 13.7497H32.75M21.75 13.7497V7.71373M21.75 7.71373V3.68973C21.75 2.74173 21.75 2.26773 22.042 1.97373C22.962 1.04773 26.75 3.23573 28.19 4.12373C29.406 4.87173 29.75 6.36773 29.75 7.71373H21.75ZM21.75 41.7498V37.7498M18.75 21.7497V22.7497M24.75 21.7497V22.7497M18.75 29.7497V30.7497M24.75 29.7497V30.7497" stroke="#063B50" stroke-width="3.5" stroke-linecap="round" stroke-linejoin="round"/>
</svg>
