<svg width="40" height="40" viewBox="0 0 40 40" fill="none" xmlns="http://www.w3.org/2000/svg">
<path d="M20 0C21.792 0 23.528 0.236 25.18 0.678L20.928 4.928C20.6054 5.25186 20.3209 5.61153 20.08 6H20C17.2311 6 14.5243 6.82109 12.222 8.35943C9.91973 9.89777 8.12531 12.0843 7.06569 14.6424C6.00606 17.2006 5.72881 20.0155 6.26901 22.7313C6.8092 25.447 8.14257 27.9416 10.1005 29.8995C12.0584 31.8574 14.553 33.1908 17.2687 33.731C19.9845 34.2712 22.7994 33.9939 25.3576 32.9343C27.9157 31.8747 30.1022 30.0803 31.6406 27.778C33.1789 25.4757 34 22.7689 34 20V19.92C34.3867 19.68 34.7433 19.3967 35.07 19.07L39.322 14.82C39.764 16.472 40 18.208 40 20C40 31.046 31.046 40 20 40C8.954 40 0 31.046 0 20C0 8.954 8.954 0 20 0ZM19.172 10.034C19.172 11.736 19.088 13.462 19.18 15.162L18.1 16.242C17.7285 16.6135 17.4338 17.0546 17.2327 17.54C17.0317 18.0254 16.9282 18.5456 16.9282 19.071C16.9282 19.5964 17.0317 20.1166 17.2327 20.602C17.4338 21.0874 17.7285 21.5285 18.1 21.9C18.4715 22.2715 18.9126 22.5662 19.398 22.7673C19.8834 22.9683 20.4036 23.0718 20.929 23.0718C21.4544 23.0718 21.9746 22.9683 22.46 22.7673C22.9454 22.5662 23.3865 22.2715 23.758 21.9L24.838 20.82C26.538 20.912 28.262 20.828 29.966 20.828C29.808 22.7287 29.1098 24.5445 27.9537 26.0614C26.7975 27.5783 25.2317 28.7329 23.4409 29.3891C21.6501 30.0453 19.709 30.1757 17.8466 29.7649C15.9841 29.3541 14.2779 28.4193 12.9293 27.0707C11.5807 25.7221 10.6459 24.0159 10.2351 22.1534C9.82429 20.291 9.95468 18.3499 10.6109 16.5591C11.2671 14.7683 12.4217 13.2025 13.9386 12.0463C15.4555 10.8902 17.2713 10.192 19.172 10.034ZM33.008 0.254C33.3731 0.405358 33.6851 0.661474 33.9047 0.990019C34.1243 1.31856 34.2417 1.70481 34.242 2.1V5.76H37.9C38.2955 5.76008 38.6821 5.87743 39.0109 6.0972C39.3397 6.31697 39.596 6.62929 39.7474 6.99469C39.8987 7.36009 39.9383 7.76216 39.8612 8.15006C39.784 8.53797 39.5936 8.8943 39.314 9.174L32.24 16.24C31.865 16.6151 31.3564 16.8259 30.826 16.826H26L22.344 20.484C21.9687 20.8593 21.4597 21.0701 20.929 21.0701C20.3983 21.0701 19.8893 20.8593 19.514 20.484C19.1387 20.1087 18.9279 19.5997 18.9279 19.069C18.9279 18.5383 19.1387 18.0293 19.514 17.654L23.172 14V9.172C23.1718 8.90904 23.2234 8.64862 23.324 8.40565C23.4246 8.16267 23.572 7.94191 23.758 7.756L30.828 0.686C31.1077 0.406135 31.4641 0.215517 31.8522 0.138263C32.2402 0.0610088 32.6425 0.10059 33.008 0.252" fill="#063B50"/>
</svg>
