<svg width="50" height="50" viewBox="0 0 50 50" fill="none" xmlns="http://www.w3.org/2000/svg">
<path d="M12.7604 25.3124C13.6632 23.0207 14.7486 20.8159 16.0167 18.6978C17.2847 16.5798 18.7167 14.5832 20.3125 12.7082L17.6042 12.1353C16.9097 11.9964 16.2326 12.0311 15.5729 12.2395C14.9132 12.4478 14.3403 12.795 13.8542 13.2811L7.29167 19.8436C6.77083 20.3645 6.57083 20.9895 6.69167 21.7186C6.8125 22.4478 7.22083 22.9513 7.91667 23.2291L12.7604 25.3124ZM43.3854 4.9999C39.7049 4.82629 36.2069 5.53809 32.8917 7.13531C29.5764 8.73253 26.616 10.8332 24.0104 13.4374C22.3437 15.1041 20.8764 16.9096 19.6083 18.8541C18.3403 20.7985 17.2389 22.8471 16.3042 24.9999C16.1306 25.4513 16.0437 25.9117 16.0437 26.3811C16.0437 26.8506 16.2174 27.2582 16.5646 27.6041L23.075 34.1145C23.4222 34.4617 23.8306 34.6353 24.3 34.6353C24.7694 34.6353 25.2292 34.5485 25.6792 34.3749C27.8319 33.4374 29.8806 32.3346 31.825 31.0666C33.7694 29.7985 35.575 28.3318 37.2417 26.6666C39.8458 24.0624 41.9465 21.1027 43.5437 17.7874C45.141 14.4721 45.8521 10.9735 45.6771 7.29156C45.6771 7.01378 45.6076 6.73601 45.4687 6.45823C45.3299 6.18045 45.1562 5.9374 44.9479 5.72906C44.7396 5.52073 44.4965 5.34712 44.2187 5.20823C43.941 5.06934 43.6632 4.9999 43.3854 4.9999ZM28.9583 17.5791C28.9583 16.4152 29.3576 15.4339 30.1562 14.6353C30.9549 13.8367 31.9361 13.4374 33.1 13.4374C34.2639 13.4374 35.2444 13.8367 36.0417 14.6353C36.8389 15.4339 37.2382 16.4152 37.2396 17.5791C37.241 18.743 36.8417 19.7235 36.0417 20.5207C35.2417 21.318 34.2611 21.7173 33.1 21.7186C31.9389 21.72 30.9576 21.3207 30.1562 20.5207C29.3549 19.7207 28.9556 18.7402 28.9583 17.5791ZM25.3646 37.9166L27.4479 42.7603C27.7257 43.4548 28.2292 43.8714 28.9583 44.0103C29.6875 44.1492 30.3125 43.9582 30.8333 43.4374L37.3958 36.8749C37.8819 36.3888 38.2292 35.8075 38.4375 35.1311C38.6458 34.4548 38.6806 33.7686 38.5417 33.0728L38.0208 30.3645C36.1111 31.9617 34.1062 33.3943 32.0062 34.6624C29.9062 35.9305 27.6924 37.0152 25.3646 37.9166ZM8.4375 33.4374C9.65278 32.2221 11.1285 31.6054 12.8646 31.5874C14.6007 31.5693 16.0764 32.1686 17.2917 33.3853C18.5069 34.602 19.1146 36.0777 19.1146 37.8124C19.1146 39.5471 18.5069 41.0228 17.2917 42.2395C15.625 43.9061 13.6542 44.8957 11.3792 45.2082C9.10417 45.5207 6.82153 45.8332 4.53125 46.1457C4.84375 43.8541 5.16528 41.5714 5.49583 39.2978C5.82639 37.0242 6.80694 35.0707 8.4375 33.4374Z" fill="#063B50"/>
</svg>
