<svg width="35" height="34" viewBox="0 0 35 34" fill="none" xmlns="http://www.w3.org/2000/svg">
<path fill-rule="evenodd" clip-rule="evenodd" d="M25.865 0.574227C26.0016 0.369782 26.2001 0.207665 26.4355 0.108362C26.671 0.00905984 26.9327 -0.0229707 27.1876 0.0163186L33.9081 1.06148C34.2498 1.1146 34.5549 1.29199 34.7563 1.55467C34.9577 1.81734 35.0391 2.14382 34.9824 2.46234L33.8636 8.72846C33.8209 8.96599 33.7036 9.18639 33.5266 9.36182C33.3495 9.53725 33.1207 9.65982 32.8689 9.71405C32.6171 9.76828 32.3538 9.75174 32.1121 9.66651C31.8704 9.58128 31.6613 9.43119 31.5111 9.23521L29.697 6.87201L20.3548 12.4365C19.9564 12.6741 19.4793 12.7694 19.0114 12.705C18.5435 12.6405 18.1164 12.4205 17.8088 12.0857L12.5992 6.40912L2.8571 11.0746C2.3947 11.2962 1.85677 11.3376 1.36166 11.1895C0.866551 11.0415 0.454813 10.7162 0.217025 10.2852C-0.0207626 9.85427 -0.0651221 9.3529 0.0937053 8.89144C0.252533 8.42998 0.601537 8.04623 1.06394 7.8246L12.1862 2.49645C12.5789 2.30843 13.0282 2.24944 13.4613 2.32903C13.8944 2.40862 14.286 2.62212 14.5728 2.93498L19.6804 8.50189L27.4176 3.89244L25.9094 1.92636C25.7595 1.73031 25.6752 1.49723 25.6673 1.25657C25.6594 1.01591 25.7282 0.77847 25.865 0.574227ZM8.75414 12.5364L1.1685 16.5806C0.868827 16.7401 0.619653 16.9706 0.44616 17.2486C0.272666 17.5267 0.181002 17.8425 0.18043 18.1642V32.1728C0.18043 33.1814 1.05871 34 2.14088 34H8.75414V12.5364ZM12.0216 34H21.6095V17.4041L17.2991 19.4116L12.9913 12.3853C12.7733 12.0284 12.4326 11.7503 12.0242 11.596L12.0216 34ZM32.2011 34H24.8769V15.8814L31.3255 12.875C31.6244 12.7359 31.9564 12.6704 32.2901 12.6845C32.6239 12.6986 32.9482 12.792 33.2323 12.9558C33.5164 13.1195 33.7509 13.3483 33.9136 13.6202C34.0762 13.8922 34.1616 14.1984 34.1616 14.5098V32.1728C34.1616 32.6574 33.9551 33.1222 33.5874 33.4648C33.2197 33.8075 32.7211 34 32.2011 34Z" fill="#063B50"/>
</svg>
