<svg width="41" height="36" viewBox="0 0 41 36" fill="none" xmlns="http://www.w3.org/2000/svg">
<path d="M13.5399 9.92837C13.1599 10.3084 13.1599 10.9484 13.5399 11.3484L13.7399 11.5484C15.2599 13.0684 17.8799 13.0684 19.3999 11.5484L25.4799 5.46837L26.8999 6.88837L25.0999 8.68837L36.6599 20.2484C41.2399 15.5284 41.1999 8.22837 36.5199 3.54837C32.1999 -0.75163 25.6799 -1.07163 20.9799 2.46837L13.5599 9.94837L13.5399 9.92837Z" fill="#063B50"/>
<path d="M15.2 25.6484L16.62 24.2284L24.62 32.2284L27 29.8484L18.98 21.8284L20.4 20.4084L28.42 28.4284L30.8 26.0484L22.78 18.0284L24.2 16.6084L32.22 24.6284L35.24 21.6284L23.66 10.0684L20.8 12.9284C19.66 14.0684 18.16 14.6884 16.56 14.6884C14.96 14.6884 13.46 14.0684 12.32 12.9284L12.12 12.7284C10.96 11.5684 10.96 9.66843 12.12 8.48843L18.54 2.00842C13.88 -1.09157 7.7 -0.611575 3.54 3.50842C-1.18 8.24842 -1.18 15.6484 3.54 20.3684L18.6 35.4084C18.98 35.7884 19.5 35.9884 20.02 35.9884C20.54 35.9884 21.04 35.7884 21.44 35.4084L23.22 33.6284L15.22 25.6284L15.2 25.6484Z" fill="#063B50"/>
</svg>
