<svg width="70" height="70" viewBox="0 0 70 70" fill="none" xmlns="http://www.w3.org/2000/svg">
<mask id="path-1-inside-1_518_454" fill="white">
<path d="M46.6671 0C54.1842 0.000147404 60.2775 6.09421 60.2775 13.6113V15.5557C60.2774 19.2397 58.8131 22.5807 56.4357 25.0312C64.4718 27.7278 70.0001 33.3554 70.0001 39.8613C70 48.9893 59.1179 56.3886 45.6945 56.3887C32.2709 56.3887 21.3889 48.9893 21.3888 39.8613C21.3888 32.9544 27.6193 27.0372 36.4669 24.5664C34.3447 22.166 33.0558 19.0116 33.0558 15.5557V13.6113C33.0558 6.09412 39.1499 0 46.6671 0Z"/>
</mask>
<g filter="url(#filter0_i_518_454)">
<path d="M46.6671 0C54.1842 0.000147404 60.2775 6.09421 60.2775 13.6113V15.5557C60.2774 19.2397 58.8131 22.5807 56.4357 25.0312C64.4718 27.7278 70.0001 33.3554 70.0001 39.8613C70 48.9893 59.1179 56.3886 45.6945 56.3887C32.2709 56.3887 21.3889 48.9893 21.3888 39.8613C21.3888 32.9544 27.6193 27.0372 36.4669 24.5664C34.3447 22.166 33.0558 19.0116 33.0558 15.5557V13.6113C33.0558 6.09412 39.1499 0 46.6671 0Z" fill="url(#paint0_linear_518_454)"/>
</g>
<path d="M46.6671 0L46.6671 -0.5H46.6671V0ZM60.2775 15.5557L60.7775 15.5557V15.5557H60.2775ZM56.4357 25.0312L56.0768 24.6831L55.5241 25.2528L56.2766 25.5053L56.4357 25.0312ZM70.0001 39.8613L70.5001 39.8613V39.8613H70.0001ZM45.6945 56.3887V56.8887H45.6945L45.6945 56.3887ZM21.3888 39.8613H20.8888V39.8613L21.3888 39.8613ZM36.4669 24.5664L36.6014 25.048L37.3702 24.8333L36.8415 24.2352L36.4669 24.5664ZM33.0558 15.5557H32.5558V15.5557L33.0558 15.5557ZM46.6671 0L46.6671 0.5C53.908 0.500142 59.7775 6.37031 59.7775 13.6113H60.2775H60.7775C60.7775 5.8181 54.4604 -0.499847 46.6671 -0.5L46.6671 0ZM60.2775 13.6113H59.7775V15.5557H60.2775H60.7775V13.6113H60.2775ZM60.2775 15.5557L59.7775 15.5557C59.7774 19.1044 58.3675 22.322 56.0768 24.6831L56.4357 25.0312L56.7945 25.3794C59.2588 22.8394 60.7774 19.3749 60.7775 15.5557L60.2775 15.5557ZM56.4357 25.0312L56.2766 25.5053C64.2168 28.1696 69.5001 33.6654 69.5001 39.8613H70.0001H70.5001C70.5001 33.0455 64.7269 27.286 56.5947 24.5572L56.4357 25.0312ZM70.0001 39.8613L69.5001 39.8613C69.5001 44.2107 66.9077 48.2053 62.5999 51.1345C58.2947 54.0619 52.3192 55.8887 45.6945 55.8887L45.6945 56.3887L45.6945 56.8887C52.4932 56.8887 58.6704 55.0157 63.1622 51.9614C67.6513 48.909 70.5001 44.6399 70.5001 39.8613L70.0001 39.8613ZM45.6945 56.3887V55.8887C39.0697 55.8887 33.0942 54.0619 28.789 51.1345C24.4812 48.2053 21.8888 44.2107 21.8888 39.8613L21.3888 39.8613L20.8888 39.8613C20.8889 44.6399 23.7376 48.909 28.2267 51.9615C32.7184 55.0157 38.8957 56.8887 45.6945 56.8887V56.3887ZM21.3888 39.8613H21.8888C21.8888 33.2837 27.8485 27.4923 36.6014 25.048L36.4669 24.5664L36.3324 24.0848C27.3901 26.5821 20.8888 32.6251 20.8888 39.8613H21.3888ZM36.4669 24.5664L36.8415 24.2352C34.7969 21.9226 33.5558 18.8849 33.5558 15.5557L33.0558 15.5557L32.5558 15.5557C32.5558 19.1384 33.8925 22.4094 36.0923 24.8976L36.4669 24.5664ZM33.0558 15.5557H33.5558V13.6113H33.0558H32.5558V15.5557H33.0558ZM33.0558 13.6113H33.5558C33.5558 6.37026 39.426 0.5 46.6671 0.5V0V-0.5C38.8738 -0.5 32.5558 5.81798 32.5558 13.6113H33.0558Z" fill="url(#paint1_linear_518_454)" mask="url(#path-1-inside-1_518_454)"/>
<foreignObject x="-5.43656" y="2.34127" width="65.3175" height="73.0958"><div xmlns="http://www.w3.org/1999/xhtml" style="backdrop-filter:blur(2.72px);clip-path:url(#bgblur_0_518_454_clip_path);height:100%;width:100%"></div></foreignObject><g filter="url(#filter1_i_518_454)" data-figma-bg-blur-radius="5.43656">
<mask id="path-3-inside-2_518_454" fill="white">
<path d="M27.2217 7.77783C35.8128 7.77783 42.7773 14.7424 42.7773 23.3335C42.7773 27.1241 41.4209 30.5971 39.1676 33.2956C38.6748 33.8857 38.9093 34.832 39.6354 35.0848C48.428 38.1471 54.4443 44.3602 54.4443 51.5278C54.4443 61.7297 42.2569 70.0003 27.2227 70.0005C12.1882 70.0005 1.51919e-06 61.7298 0 51.5278C0 44.3606 6.01552 38.1474 14.8073 35.0848C15.5333 34.8319 15.7678 33.8858 15.2751 33.2957C13.0224 30.5971 11.667 27.1237 11.667 23.3335C11.667 14.7426 18.6308 7.77808 27.2217 7.77783Z"/>
</mask>
<path d="M27.2217 7.77783C35.8128 7.77783 42.7773 14.7424 42.7773 23.3335C42.7773 27.1241 41.4209 30.5971 39.1676 33.2956C38.6748 33.8857 38.9093 34.832 39.6354 35.0848C48.428 38.1471 54.4443 44.3602 54.4443 51.5278C54.4443 61.7297 42.2569 70.0003 27.2227 70.0005C12.1882 70.0005 1.51919e-06 61.7298 0 51.5278C0 44.3606 6.01552 38.1474 14.8073 35.0848C15.5333 34.8319 15.7678 33.8858 15.2751 33.2957C13.0224 30.5971 11.667 27.1237 11.667 23.3335C11.667 14.7426 18.6308 7.77808 27.2217 7.77783Z" fill="#2180A8" fill-opacity="0.4"/>
<path d="M27.2217 7.77783V7.27783H27.2217L27.2217 7.77783ZM42.7773 23.3335L43.2773 23.3335V23.3335H42.7773ZM54.4443 51.5278H54.9443V51.5278H54.4443ZM27.2227 70.0005V70.5005H27.2227L27.2227 70.0005ZM0 51.5278H-0.5V51.5278H0ZM11.667 23.3335H11.167V23.3335L11.667 23.3335ZM14.8073 35.0848L14.9718 35.557L14.8073 35.0848ZM15.2751 33.2957L14.8913 33.6161L15.2751 33.2957ZM39.1676 33.2956L39.5514 33.6161L39.1676 33.2956ZM39.6354 35.0848L39.7999 34.6127L39.6354 35.0848ZM27.2217 7.77783V8.27783C35.5366 8.27783 42.2773 15.0185 42.2773 23.3335H42.7773H43.2773C43.2773 14.4663 36.0889 7.27783 27.2217 7.27783V7.77783ZM42.7773 23.3335L42.2773 23.3335C42.2773 27.0026 40.9649 30.3631 38.7838 32.9751L39.1676 33.2956L39.5514 33.6161C41.8769 30.8311 43.2773 27.2456 43.2773 23.3335L42.7773 23.3335ZM39.6354 35.0848L39.471 35.557C48.1679 38.586 53.9443 44.6663 53.9443 51.5278H54.4443H54.9443C54.9443 44.0541 48.6882 37.7083 39.7999 34.6127L39.6354 35.0848ZM54.4443 51.5278H53.9443C53.9443 56.4137 51.0262 60.8946 46.1906 64.1761C41.3577 67.4557 34.653 69.5004 27.2227 69.5005L27.2227 70.0005L27.2227 70.5005C34.8265 70.5004 41.7327 68.4097 46.7521 65.0035C51.7687 61.5992 54.9443 56.8438 54.9443 51.5278H54.4443ZM27.2227 70.0005V69.5005C19.7922 69.5005 13.0873 67.4558 8.25418 64.1761C3.41833 60.8946 0.500001 56.4137 0.5 51.5278H0H-0.5C-0.499999 56.8439 2.6758 61.5993 7.69267 65.0036C12.7123 68.4098 19.6187 70.5005 27.2227 70.5005V70.0005ZM0 51.5278H0.5C0.5 44.6667 6.27572 38.5862 14.9718 35.557L14.8073 35.0848L14.6428 34.6127C5.75532 37.7086 -0.5 44.0546 -0.5 51.5278H0ZM15.2751 33.2957L15.659 32.9752C13.4785 30.3632 12.167 27.0023 12.167 23.3335L11.667 23.3335L11.167 23.3335C11.167 27.2451 12.5663 30.8309 14.8913 33.6161L15.2751 33.2957ZM11.667 23.3335H12.167C12.167 15.0187 18.907 8.27807 27.2217 8.27783L27.2217 7.77783L27.2217 7.27783C18.3546 7.27809 11.167 14.4664 11.167 23.3335H11.667ZM14.8073 35.0848L14.9718 35.557C16.0483 35.182 16.3615 33.8168 15.659 32.9752L15.2751 33.2957L14.8913 33.6161C15.1741 33.9549 15.0183 34.4819 14.6428 34.6127L14.8073 35.0848ZM39.1676 33.2956L38.7838 32.9751C38.0811 33.8167 38.3943 35.1821 39.471 35.557L39.6354 35.0848L39.7999 34.6127C39.4243 34.4819 39.2685 33.9548 39.5514 33.6161L39.1676 33.2956Z" fill="url(#paint2_linear_518_454)" mask="url(#path-3-inside-2_518_454)"/>
</g>
<defs>
<filter id="filter0_i_518_454" x="21.3888" y="0" width="48.6113" height="56.3887" filterUnits="userSpaceOnUse" color-interpolation-filters="sRGB">
<feFlood flood-opacity="0" result="BackgroundImageFix"/>
<feBlend mode="normal" in="SourceGraphic" in2="BackgroundImageFix" result="shape"/>
<feColorMatrix in="SourceAlpha" type="matrix" values="0 0 0 0 0 0 0 0 0 0 0 0 0 0 0 0 0 0 127 0" result="hardAlpha"/>
<feOffset/>
<feGaussianBlur stdDeviation="5"/>
<feComposite in2="hardAlpha" operator="arithmetic" k2="-1" k3="1"/>
<feColorMatrix type="matrix" values="0 0 0 0 1 0 0 0 0 1 0 0 0 0 1 0 0 0 0.4 0"/>
<feBlend mode="normal" in2="shape" result="effect1_innerShadow_518_454"/>
</filter>
<filter id="filter1_i_518_454" x="-5.43656" y="2.34127" width="65.3175" height="73.0958" filterUnits="userSpaceOnUse" color-interpolation-filters="sRGB">
<feFlood flood-opacity="0" result="BackgroundImageFix"/>
<feBlend mode="normal" in="SourceGraphic" in2="BackgroundImageFix" result="shape"/>
<feColorMatrix in="SourceAlpha" type="matrix" values="0 0 0 0 0 0 0 0 0 0 0 0 0 0 0 0 0 0 127 0" result="hardAlpha"/>
<feOffset/>
<feGaussianBlur stdDeviation="2"/>
<feComposite in2="hardAlpha" operator="arithmetic" k2="-1" k3="1"/>
<feColorMatrix type="matrix" values="0 0 0 0 1 0 0 0 0 1 0 0 0 0 1 0 0 0 0.3 0"/>
<feBlend mode="normal" in2="shape" result="effect1_innerShadow_518_454"/>
</filter>
<clipPath id="bgblur_0_518_454_clip_path" transform="translate(5.43656 -2.34127)"><path d="M27.2217 7.77783C35.8128 7.77783 42.7773 14.7424 42.7773 23.3335C42.7773 27.1241 41.4209 30.5971 39.1676 33.2956C38.6748 33.8857 38.9093 34.832 39.6354 35.0848C48.428 38.1471 54.4443 44.3602 54.4443 51.5278C54.4443 61.7297 42.2569 70.0003 27.2227 70.0005C12.1882 70.0005 1.51919e-06 61.7298 0 51.5278C0 44.3606 6.01552 38.1474 14.8073 35.0848C15.5333 34.8319 15.7678 33.8858 15.2751 33.2957C13.0224 30.5971 11.667 27.1237 11.667 23.3335C11.667 14.7426 18.6308 7.77808 27.2217 7.77783Z"/>
</clipPath><linearGradient id="paint0_linear_518_454" x1="21.6019" y1="0" x2="21.6019" y2="55.8944" gradientUnits="userSpaceOnUse">
<stop stop-color="#2180A8"/>
<stop offset="1" stop-color="#056A95"/>
</linearGradient>
<linearGradient id="paint1_linear_518_454" x1="21.3888" y1="0" x2="21.3888" y2="56.3889" gradientUnits="userSpaceOnUse">
<stop stop-color="white" stop-opacity="0.4"/>
<stop offset="1" stop-color="white" stop-opacity="0.01"/>
</linearGradient>
<linearGradient id="paint2_linear_518_454" x1="0" y1="7.77783" x2="0" y2="70.0003" gradientUnits="userSpaceOnUse">
<stop stop-color="white" stop-opacity="0.3"/>
<stop offset="1" stop-color="white" stop-opacity="0.13"/>
</linearGradient>
</defs>
</svg>
